<svg width="28" height="28" viewBox="0 0 28 28" fill="none" xmlns="http://www.w3.org/2000/svg">
<g id="bag (1) 1">
<path id="Vector" d="M23.5287 21.7583L22.2687 9.15832C22.2268 8.72611 22.025 8.32511 21.7029 8.03381C21.3809 7.74251 20.9617 7.58187 20.5275 7.58332H5.13915C4.7049 7.58187 4.28574 7.74251 3.96369 8.03381C3.64164 8.32511 3.43988 8.72611 3.3979 9.15832L2.1379 21.7583C2.08083 22.3261 2.14342 22.8996 2.32162 23.4417C2.49982 23.9839 2.78968 24.4826 3.1725 24.9059C3.55532 25.3291 4.0226 25.6674 4.54421 25.8989C5.06581 26.1304 5.63014 26.25 6.20082 26.25H19.4658C20.0365 26.25 20.6008 26.1304 21.1224 25.8989C21.644 25.6674 22.1113 25.3291 22.4941 24.9059C22.877 24.4826 23.1668 23.9839 23.345 23.4417C23.5232 22.8996 23.5858 22.3261 23.5287 21.7583Z" fill="#FFC127"/>
<g id="Group">
<path id="Vector_2" d="M8.16667 11.0833C8.811 11.0833 9.33333 10.561 9.33333 9.91667C9.33333 9.27233 8.811 8.75 8.16667 8.75C7.52233 8.75 7 9.27233 7 9.91667C7 10.561 7.52233 11.0833 8.16667 11.0833Z" fill="#E2791B"/>
<path id="Vector_3" d="M17.5 11.0833C18.1443 11.0833 18.6666 10.561 18.6666 9.91667C18.6666 9.27233 18.1443 8.75 17.5 8.75C16.8556 8.75 16.3333 9.27233 16.3333 9.91667C16.3333 10.561 16.8556 11.0833 17.5 11.0833Z" fill="#E2791B"/>
<path id="Vector_4" d="M17.5 10.5C17.3453 10.5 17.1969 10.4385 17.0875 10.3291C16.9781 10.2197 16.9166 10.0714 16.9166 9.91667V7C16.9166 5.91703 16.4864 4.87842 15.7207 4.11265C14.9549 3.34687 13.9163 2.91667 12.8333 2.91667C11.7503 2.91667 10.7117 3.34687 9.94596 4.11265C9.18019 4.87842 8.74998 5.91703 8.74998 7V9.91667C8.74998 10.0714 8.68852 10.2197 8.57913 10.3291C8.46973 10.4385 8.32136 10.5 8.16665 10.5C8.01194 10.5 7.86356 10.4385 7.75417 10.3291C7.64477 10.2197 7.58331 10.0714 7.58331 9.91667V7C7.58331 5.60761 8.13644 4.27226 9.121 3.28769C10.1056 2.30312 11.4409 1.75 12.8333 1.75C14.2257 1.75 15.5611 2.30312 16.5456 3.28769C17.5302 4.27226 18.0833 5.60761 18.0833 7V9.91667C18.0833 10.0714 18.0219 10.2197 17.9125 10.3291C17.8031 10.4385 17.6547 10.5 17.5 10.5Z" fill="#2C2C2C"/>
<path id="Vector_5" d="M19.8334 26.25C23.3772 26.25 26.25 23.3771 26.25 19.8333C26.25 16.2895 23.3772 13.4167 19.8334 13.4167C16.2895 13.4167 13.4167 16.2895 13.4167 19.8333C13.4167 23.3771 16.2895 26.25 19.8334 26.25Z" fill="#03AA6F"/>
</g>
<path id="Vector_6" d="M19.25 22.1667C19.0953 22.1666 18.9469 22.1052 18.8376 21.9958L17.0876 20.2458C16.9813 20.1357 16.9225 19.9884 16.9239 19.8354C16.9252 19.6825 16.9865 19.5362 17.0947 19.428C17.2028 19.3199 17.3491 19.2585 17.5021 19.2572C17.655 19.2559 17.8024 19.3147 17.9124 19.4209L19.25 20.7585L22.3376 17.6709C22.4476 17.5647 22.5949 17.5059 22.7479 17.5072C22.9008 17.5085 23.0472 17.5699 23.1553 17.678C23.2635 17.7862 23.3248 17.9325 23.3261 18.0854C23.3275 18.2384 23.2687 18.3857 23.1624 18.4958L19.6624 21.9958C19.553 22.1052 19.4047 22.1666 19.25 22.1667Z" fill="white"/>
</g>
</svg>
