<svg width="20" height="20" viewBox="0 0 20 20" fill="none" xmlns="http://www.w3.org/2000/svg">
<g id="bank (1) 1" clip-path="url(#clip0_184_3128)">
<g id="Bank building">
<path id="Vector" d="M0.416687 17.9167H19.5834V19.5834H0.416687V17.9167Z" fill="#898989"/>
<path id="Vector_2" d="M1.66669 15.8333H18.3334V17.0833H1.66669V15.8333Z" fill="#898989"/>
<path id="Vector_3" d="M8.33337 14.1667V15H11.6667V14.1667H10.8334V9.16668H11.6667V8.33334H8.33337V9.16668H9.16671V14.1667H8.33337Z" fill="#898989"/>
<path id="Vector_4" d="M13.75 14.1667V15H17.0833V14.1667H16.25V9.16668H17.0833V8.33334H13.75V9.16668H14.5833V14.1667H13.75Z" fill="#898989"/>
<path id="Vector_5" d="M2.91669 14.1667V15H6.25002V14.1667H5.41669V9.16668H6.25002V8.33334H2.91669V9.16668H3.75002V14.1667H2.91669Z" fill="#898989"/>
<path id="Vector_6" d="M10 5.4167C10.4603 5.4167 10.8334 5.0436 10.8334 4.58336C10.8334 4.12313 10.4603 3.75003 10 3.75003C9.53978 3.75003 9.16669 4.12313 9.16669 4.58336C9.16669 5.0436 9.53978 5.4167 10 5.4167Z" fill="#898989"/>
<path id="Vector_7" d="M18.75 5.41669L10 0.416687L1.25 5.41669V7.50002H18.75V5.41669ZM10 6.25002C9.67036 6.25002 9.34813 6.15227 9.07405 5.96914C8.79997 5.786 8.58635 5.5257 8.4602 5.22116C8.33405 4.91662 8.30105 4.58151 8.36536 4.2582C8.42967 3.9349 8.5884 3.63793 8.82149 3.40484C9.05458 3.17176 9.35155 3.01302 9.67485 2.94871C9.99815 2.8844 10.3333 2.91741 10.6378 3.04356C10.9423 3.1697 11.2026 3.38332 11.3858 3.6574C11.5689 3.93149 11.6667 4.25372 11.6667 4.58335C11.6667 5.02538 11.4911 5.44931 11.1785 5.76187C10.866 6.07443 10.442 6.25002 10 6.25002Z" fill="#898989"/>
</g>
</g>
<defs>
<clipPath id="clip0_184_3128">
<rect width="20" height="20" fill="white"/>
</clipPath>
</defs>
</svg>
