<svg width="31" height="30" viewBox="0 0 31 30" fill="none" xmlns="http://www.w3.org/2000/svg">
<g id="vespa 1" clip-path="url(#clip0_184_2469)">
<path id="Vector" d="M1.72023 11.0977L0.934082 11.5569L4.25236 16.2445L5.00365 15.7363L1.72023 11.0977Z" fill="#CCCBCA"/>
<path id="Vector_2" d="M26.8625 25.0945C28.8714 25.0945 30.5 23.4659 30.5 21.457C30.5 19.448 28.8714 17.8195 26.8625 17.8195C24.8535 17.8195 23.225 19.448 23.225 21.457C23.225 23.4659 24.8535 25.0945 26.8625 25.0945Z" fill="#3D6687"/>
<path id="Vector_3" d="M26.8624 17.8192C26.2559 17.8192 25.6846 17.9685 25.1819 18.2309C26.3447 18.838 27.139 20.0543 27.139 21.4568C27.139 22.8594 26.3447 24.0757 25.1819 24.6827C25.6847 24.9451 26.256 25.0944 26.8624 25.0944C28.8714 25.0944 30.4999 23.4657 30.4999 21.4567C30.5 19.4479 28.8714 17.8192 26.8624 17.8192Z" fill="#0C5177"/>
<path id="Vector_4" d="M26.8624 23.522C25.7236 23.522 24.7971 22.5956 24.7971 21.4568C24.7971 20.318 25.7236 19.3915 26.8624 19.3915C28.0011 19.3915 28.9276 20.318 28.9276 21.4568C28.9276 22.5956 28.0012 23.522 26.8624 23.522Z" fill="#CCCBCA"/>
<path id="Vector_5" d="M27.182 22.0156C26.7716 22.2301 26.265 22.0712 26.0506 21.6608L23.7467 17.252L25.2329 16.4753L27.5368 20.8842C27.7513 21.2946 27.5924 21.8012 27.182 22.0156Z" fill="#EF2929"/>
<path id="Vector_6" d="M8.42302 25.0945C10.432 25.0945 12.0605 23.4659 12.0605 21.457C12.0605 19.448 10.432 17.8195 8.42302 17.8195C6.41409 17.8195 4.78552 19.448 4.78552 21.457C4.78552 23.4659 6.41409 25.0945 8.42302 25.0945Z" fill="#3D6687"/>
<path id="Vector_7" d="M8.42339 17.8192C7.81694 17.8192 7.24565 17.9685 6.74292 18.2309C7.90577 18.838 8.70001 20.0543 8.70001 21.4568C8.70001 22.8594 7.90571 24.0757 6.74292 24.6827C7.24571 24.9451 7.817 25.0944 8.42339 25.0944C10.4324 25.0944 12.0609 23.4657 12.0609 21.4567C12.061 19.4479 10.4324 17.8192 8.42339 17.8192Z" fill="#0C5177"/>
<path id="Vector_8" d="M8.42329 23.522C7.28452 23.522 6.35803 22.5956 6.35803 21.4568C6.35803 20.318 7.28452 19.3915 8.42329 19.3915C9.56206 19.3915 10.4885 20.318 10.4885 21.4568C10.4885 22.5956 9.56211 23.522 8.42329 23.522Z" fill="#CCCBCA"/>
<path id="Vector_9" d="M29.7668 17.9617C29.2363 16.2625 27.5247 15.1902 25.6472 15.4088L22.1671 9.29788L20.7276 9.81333C20.7276 9.81333 22.9738 15.1897 21.9774 18.8538C21.858 19.4744 21.3149 19.9229 20.6829 19.9229H18.9686C17.1537 19.9229 15.6825 18.4517 15.6825 16.6368V15.0393C15.6825 13.8153 14.6903 12.8231 13.4662 12.8231H9.51525C6.15291 12.8231 3.42725 15.5488 3.42725 18.9111V19.9229V21.0724C3.42725 21.3642 3.66373 21.6006 3.95547 21.6006H15.6825H21.7045C22.6373 21.6006 23.4735 21.3397 23.8067 20.4684C23.9428 20.1125 24.1622 19.7937 24.4482 19.5418C26.5637 17.6782 29.7668 17.9617 29.7668 17.9617Z" fill="#FF4C4C"/>
<g id="Group">
<path id="Vector_10" d="M25.6471 15.4087L22.167 9.29782L21.4683 9.54802L24.0533 17.257C25.1667 17.1273 25.6463 17.7726 26.4313 18.4125C28.1348 17.8175 29.7667 17.9617 29.7667 17.9617C29.2362 16.2624 27.5246 15.1901 25.6471 15.4087Z" fill="#EF2929"/>
<path id="Vector_11" d="M10.3279 16.3569H8.14263C5.53832 16.3569 3.42712 18.4681 3.42712 21.0724C3.42712 21.3641 3.66361 21.6006 3.95535 21.6006H14.5152V20.5442C14.5152 18.2316 12.6405 16.3569 10.3279 16.3569Z" fill="#EF2929"/>
</g>
<path id="Vector_12" d="M10.3279 16.3569H8.14269C7.93047 16.3569 7.72187 16.3723 7.51709 16.3995C9.54865 16.6876 11.1113 18.433 11.1113 20.5442V21.6007H14.5152V20.5442C14.5152 18.2316 12.6405 16.3569 10.3279 16.3569Z" fill="#DD2626"/>
<path id="Vector_13" d="M9.57207 11.6178H0.8525C0.657793 11.6178 0.5 11.4599 0.5 11.2653V5.25796C0.5 5.06325 0.657852 4.90546 0.8525 4.90546H9.21951C9.41422 4.90546 9.57201 5.06331 9.57201 5.25796L9.57207 11.6178Z" fill="#FFC06C"/>
<path id="Vector_14" d="M9.21957 4.90546H6.21107V10.0031C6.21107 10.4471 5.85119 10.807 5.40723 10.807H0.5V11.2652C0.5 11.4599 0.657852 11.6177 0.8525 11.6177H9.57207V10.807V5.25796C9.57207 5.06331 9.41422 4.90546 9.21957 4.90546Z" fill="#EDA558"/>
<path id="Vector_15" d="M14.6077 12.823H9.57202V11.6374C9.57202 11.1788 9.9438 10.807 10.4024 10.807H14.852C15.3106 10.807 15.6824 11.1788 15.6824 11.6374V11.7484C15.6824 12.3419 15.2012 12.823 14.6077 12.823Z" fill="#3D6687"/>
<path id="Vector_16" d="M5.60989 7.00393H4.46216C4.32142 7.00393 4.20728 6.88985 4.20728 6.74905V4.90546H5.86472V6.74905C5.86472 6.88985 5.75063 7.00393 5.60989 7.00393Z" fill="#FF4C4C"/>
<path id="Vector_17" d="M14.852 10.807H12.3214V12.8231H14.6077C15.2012 12.8231 15.6824 12.342 15.6824 11.7485V11.6374C15.6823 11.1788 15.3106 10.807 14.852 10.807Z" fill="#0C5177"/>
<path id="Vector_18" d="M21.3863 8.85861L19.4806 10.3335C19.2829 10.4865 19.2466 10.7709 19.3997 10.9687C19.5527 11.1665 19.8372 11.2028 20.0349 11.0497L21.9406 9.57486L21.3863 8.85861Z" fill="#3D6687"/>
<path id="Vector_19" d="M23.1916 10.1886H20.7077C20.4886 10.1886 20.3112 10.011 20.3112 9.79207V8.70287C20.3112 8.50799 20.4527 8.34205 20.6451 8.31129L23.0557 7.92639C23.5792 7.84277 24.0533 8.24725 24.0533 8.7774V9.32678C24.0534 9.80274 23.6675 10.1886 23.1916 10.1886Z" fill="#0C5177"/>
</g>
<defs>
<clipPath id="clip0_184_2469">
<rect width="30" height="30" fill="white" transform="translate(0.5)"/>
</clipPath>
</defs>
</svg>
