<svg width="18" height="18" viewBox="0 0 18 18" fill="none" xmlns="http://www.w3.org/2000/svg">
<path fill-rule="evenodd" clip-rule="evenodd" d="M5.20063 3.75C5.21703 3.75 5.23349 3.75 5.25 3.75L12.7994 3.75C13.4642 3.74996 14.0371 3.74993 14.4958 3.81161C14.9875 3.87771 15.4587 4.02677 15.841 4.40901C16.2232 4.79126 16.3723 5.26252 16.4384 5.75416C16.5001 6.21291 16.5 6.78578 16.5 7.45065V12.7994C16.5 13.4642 16.5001 14.0371 16.4384 14.4958C16.3723 14.9875 16.2232 15.4587 15.841 15.841C15.4587 16.2232 14.9875 16.3723 14.4958 16.4384C14.0371 16.5001 13.4642 16.5 12.7994 16.5H5.20065C4.53578 16.5 3.96291 16.5001 3.50416 16.4384C3.01252 16.3723 2.54126 16.2232 2.15901 15.841C1.77677 15.4587 1.62771 14.9875 1.56161 14.4958C1.49993 14.0371 1.49996 13.4642 1.5 12.7994L1.5 7.5C1.5 7.48349 1.5 7.46703 1.5 7.45063C1.49996 6.78577 1.49993 6.21291 1.56161 5.75416C1.62771 5.26252 1.77677 4.79126 2.15901 4.40901C2.54126 4.02677 3.01252 3.87771 3.50416 3.81161C3.96291 3.74993 4.53577 3.74996 5.20063 3.75ZM3.70403 5.29823C3.37873 5.34197 3.27677 5.41258 3.21967 5.46967C3.16258 5.52677 3.09197 5.62873 3.04823 5.95403C3.0016 6.30091 3 6.77169 3 7.5V12.75C3 13.4783 3.0016 13.9491 3.04823 14.296C3.09197 14.6213 3.16258 14.7232 3.21967 14.7803C3.27677 14.8374 3.37873 14.908 3.70403 14.9518C4.05091 14.9984 4.52169 15 5.25 15H12.75C13.4783 15 13.9491 14.9984 14.296 14.9518C14.6213 14.908 14.7232 14.8374 14.7803 14.7803C14.8374 14.7232 14.908 14.6213 14.9518 14.296C14.9984 13.9491 15 13.4783 15 12.75V7.5C15 6.77169 14.9984 6.30091 14.9518 5.95403C14.908 5.62873 14.8374 5.52677 14.7803 5.46967C14.7232 5.41258 14.6213 5.34197 14.296 5.29823C13.9491 5.2516 13.4783 5.25 12.75 5.25H5.25C4.52169 5.25 4.05091 5.2516 3.70403 5.29823Z" fill="#898989"/>
<path d="M2.25 7.5C2.25 6.08579 2.25 5.37868 2.68934 4.93934C3.12868 4.5 3.83579 4.5 5.25 4.5H12.75C14.1642 4.5 14.8713 4.5 15.3107 4.93934C15.75 5.37868 15.75 6.08579 15.75 7.5H2.25Z" fill="#898989"/>
<path fill-rule="evenodd" clip-rule="evenodd" d="M5.25 1.5C5.66421 1.5 6 1.83579 6 2.25L6 4.5C6 4.91421 5.66421 5.25 5.25 5.25C4.83579 5.25 4.5 4.91421 4.5 4.5L4.5 2.25C4.5 1.83579 4.83579 1.5 5.25 1.5Z" fill="#898989"/>
<path fill-rule="evenodd" clip-rule="evenodd" d="M12.75 1.5C13.1642 1.5 13.5 1.83579 13.5 2.25L13.5 4.5C13.5 4.91421 13.1642 5.25 12.75 5.25C12.3358 5.25 12 4.91421 12 4.5L12 2.25C12 1.83579 12.3358 1.5 12.75 1.5Z" fill="#898989"/>
</svg>
