<svg width="31" height="30" viewBox="0 0 31 30" fill="none" xmlns="http://www.w3.org/2000/svg">
<g id="delivered 1">
<g id="Group">
<path id="Vector" fill-rule="evenodd" clip-rule="evenodd" d="M5.19434 9.57144L4.25 8.31702L6.88703 4.21429H23.0358L25.6786 8.31702L24.7283 9.57144H5.19434Z" fill="#FB9E20"/>
<path id="Vector_2" fill-rule="evenodd" clip-rule="evenodd" d="M4.25 8.49994H25.6786V23.4999H4.25V8.49994Z" fill="#FEBF10"/>
<path id="Vector_3" fill-rule="evenodd" clip-rule="evenodd" d="M12.8994 12.7856H17.0234C17.6587 12.7856 18.1786 13.2677 18.1786 13.8571C18.1786 14.4463 17.6587 14.9284 17.0234 14.9284H12.8994C12.2641 14.9284 11.75 14.4463 11.75 13.8571C11.75 13.2677 12.2641 12.7856 12.8994 12.7856Z" fill="#FB9E20"/>
<path id="Vector_4" fill-rule="evenodd" clip-rule="evenodd" d="M13.4967 9.57144H15.3662L16.0356 8.31702L15.6377 4.21429H13.2194L12.8213 8.31702L13.4967 9.57144Z" fill="#CA200A"/>
<path id="Vector_5" fill-rule="evenodd" clip-rule="evenodd" d="M12.8213 23.5002H16.0356V21.3574L15.6316 21.5823L15.2335 21.8072L14.8294 21.5823L14.4254 21.3574L14.0274 21.5823L13.6234 21.8072L13.2193 21.5823L12.8213 21.3574V23.5002Z" fill="#F2501B"/>
<path id="Vector_6" fill-rule="evenodd" clip-rule="evenodd" d="M12.8213 8.49994H16.0356V10.6428L15.2335 10.1922L14.4254 10.6428L13.6234 10.1922L12.8213 10.6428V8.49994Z" fill="#F2501B"/>
<path id="Vector_7" fill-rule="evenodd" clip-rule="evenodd" d="M21.3901 27.7858C24.9335 27.7858 27.8215 24.8977 27.8215 21.3543C27.8215 17.8165 24.9335 14.9286 21.3901 14.9286C17.8524 14.9286 14.9644 17.8165 14.9644 21.3543C14.9644 24.8977 17.8524 27.7858 21.3901 27.7858Z" fill="#009651"/>
<path id="Vector_8" fill-rule="evenodd" clip-rule="evenodd" d="M17.3838 22.235C17.0318 21.8924 17.0133 21.3217 17.3404 20.9536C17.6739 20.5921 18.2296 20.5732 18.5876 20.9157L20.1496 22.4127L24.1812 18.3976C24.5269 18.0488 25.0887 18.0615 25.4282 18.4167C25.7678 18.7782 25.7616 19.349 25.4096 19.6979L20.7794 24.3154H20.7732C20.4398 24.6516 19.9026 24.6579 19.5632 24.3281L17.3838 22.235Z" fill="white"/>
</g>
</g>
</svg>
