<svg width="28" height="28" viewBox="0 0 28 28" fill="none" xmlns="http://www.w3.org/2000/svg">
<g id="dollar (1) 1">
<g id="Group">
<g id="Group_2">
<path id="Vector" fill-rule="evenodd" clip-rule="evenodd" d="M16.0945 21.8963H24.9519C25.6263 21.8963 26.1771 22.4472 26.1771 23.1215V24.4669C26.1771 25.1412 25.6262 25.6921 24.9519 25.6921H16.0945C15.4202 25.6921 14.8694 25.1412 14.8694 24.4669V23.1215C14.8693 22.4472 15.4202 21.8963 16.0945 21.8963Z" fill="#FFB74D"/>
</g>
<g id="Group_3">
<path id="Vector_2" fill-rule="evenodd" clip-rule="evenodd" d="M17.89 18.1005H26.7459C27.4202 18.1005 27.9727 18.6514 27.9727 19.3257V20.6711C27.9727 21.3454 27.4202 21.8963 26.7459 21.8963H17.89C17.2157 21.8963 16.6632 21.3454 16.6632 20.6711V19.3257C16.6632 18.6514 17.2157 18.1005 17.89 18.1005Z" fill="#FFCA28"/>
</g>
<g id="Group_4">
<path id="Vector_3" fill-rule="evenodd" clip-rule="evenodd" d="M16.0945 14.3047H24.9519C25.6263 14.3047 26.1771 14.8556 26.1771 15.5299V16.8753C26.1771 17.5497 25.6262 18.1005 24.9519 18.1005H16.0945C15.4202 18.1005 14.8694 17.5497 14.8694 16.8753V15.5299C14.8693 14.8556 15.4202 14.3047 16.0945 14.3047Z" fill="#FFB74D"/>
</g>
<g id="Group_5">
<path id="Vector_4" fill-rule="evenodd" clip-rule="evenodd" d="M20.5224 14.3307C23.964 14.3307 26.7703 11.5244 26.7703 8.08283C26.7703 4.64287 23.964 1.83505 20.5224 1.83505C17.0825 1.83505 14.2746 4.64287 14.2746 8.08283C14.2746 11.5245 17.0825 14.3307 20.5224 14.3307Z" fill="#FAC149"/>
</g>
<path id="Vector_5" d="M22.8071 6.79268V6.39133C22.8071 5.53657 22.0584 4.84116 21.1383 4.84116H20.9238V3.50055H20.1211V4.84313C19.0759 4.88507 18.2394 5.68504 18.2394 6.66269C18.2394 8.48422 20.1963 8.48422 20.8393 8.48422C21.4818 8.48422 22.0044 8.94124 22.0044 9.50305C22.0044 10.0648 21.4818 10.5218 20.8393 10.5218H19.9082C19.4306 10.5218 19.0421 10.1865 19.0421 9.77435V9.373H18.2394V9.77435C18.2394 10.6291 18.9881 11.3245 19.9082 11.3245H20.1211V12.6667H20.9238V11.3226C21.9697 11.2814 22.8071 10.4812 22.8071 9.50299C22.8071 8.4986 21.9243 7.68141 20.8393 7.68141C19.3477 7.68141 19.0421 7.27415 19.0421 6.66264C19.0421 6.10083 19.5647 5.64381 20.2072 5.64381H21.1382C21.6158 5.64381 22.0043 5.9791 22.0043 6.39128V6.79263L22.8071 6.79268Z" fill="#FF7100"/>
<g id="Group_6">
<path id="Vector_6" fill-rule="evenodd" clip-rule="evenodd" d="M8.63942 14.1438V26.165H4.42925V14.1438H0.0273438L6.53516 5.3075L13.0429 14.1438H8.63942Z" fill="#03AA6F"/>
</g>
<path id="Vector_7" d="M17.2953 14.3047H18.0981V18.1005H17.2953V14.3047ZM20.1211 18.1005H20.9238V14.3047H20.1211V18.1005ZM22.9484 14.3047V18.1005H23.7511V14.3047H22.9484Z" fill="#F0A535"/>
<path id="Vector_8" d="M19.0892 18.1005H19.8919V21.8963H19.0892V18.1005ZM21.9166 21.8963H22.7193V18.1005H21.9166V21.8963ZM24.744 18.1005V21.8963H25.5467V18.1005H24.744Z" fill="#FFB74D"/>
<path id="Vector_9" d="M17.2953 21.8963H18.0981V25.6921H17.2953V21.8963ZM20.1211 25.6921H20.9238V21.8964H20.1211V25.6921ZM22.9484 21.8963V25.6921H23.7511V21.8963H22.9484Z" fill="#F0A535"/>
</g>
</g>
</svg>
