<svg width="18" height="18" viewBox="0 0 18 18" fill="none" xmlns="http://www.w3.org/2000/svg">
<g id="edit-03">
<path id="Icon (Stroke)" fill-rule="evenodd" clip-rule="evenodd" d="M11.8448 2.09466C12.759 1.18044 14.2412 1.18044 15.1554 2.09466C16.0696 3.00887 16.0696 4.4911 15.1554 5.40532L5.73337 14.8274C5.71852 14.8422 5.70381 14.857 5.68921 14.8716C5.47363 15.0876 5.28355 15.278 5.0544 15.4184C4.85309 15.5418 4.63361 15.6327 4.40403 15.6878C4.1427 15.7506 3.87364 15.7503 3.56847 15.75C3.54781 15.75 3.52698 15.75 3.50598 15.75H2.25008C1.83586 15.75 1.50008 15.4142 1.50008 15V13.7441C1.50008 13.7231 1.50006 13.7023 1.50004 13.6816C1.49975 13.3765 1.4995 13.1074 1.56224 12.8461C1.61736 12.6165 1.70827 12.397 1.83164 12.1957C1.97206 11.9665 2.16249 11.7765 2.37848 11.5609C2.3931 11.5463 2.40784 11.5316 2.42269 11.5167L11.8448 2.09466ZM14.0948 3.15532C13.7663 2.82689 13.2339 2.82689 12.9054 3.15532L3.48335 12.5774C3.19868 12.862 3.14619 12.9214 3.1106 12.9794C3.06948 13.0465 3.03917 13.1197 3.0208 13.1962C3.0049 13.2625 3.00008 13.3415 3.00008 13.7441V14.25H3.50598C3.90857 14.25 3.98762 14.2452 4.05386 14.2293C4.13039 14.2109 4.20354 14.1806 4.27065 14.1395C4.32873 14.1039 4.38804 14.0514 4.67271 13.7667L14.0948 4.34466C14.4232 4.01623 14.4232 3.48374 14.0948 3.15532ZM8.25006 15C8.25006 14.5858 8.58584 14.25 9.00006 14.25H15.7501C16.1643 14.25 16.5001 14.5858 16.5001 15C16.5001 15.4142 16.1643 15.75 15.7501 15.75H9.00006C8.58584 15.75 8.25006 15.4142 8.25006 15Z" fill="#2C2C2C"/>
</g>
</svg>
