<svg width="20" height="20" viewBox="0 0 20 20" fill="none" xmlns="http://www.w3.org/2000/svg">
<g id="Filter_alt">
<path id="Vector 7 (Stroke)" fill-rule="evenodd" clip-rule="evenodd" d="M9.1665 5.83333C9.1665 5.3731 9.5396 5 9.99984 5L16.6665 5C17.1267 5 17.4998 5.3731 17.4998 5.83333C17.4998 6.29357 17.1267 6.66667 16.6665 6.66667L9.99984 6.66667C9.5396 6.66667 9.1665 6.29357 9.1665 5.83333Z" fill="#2C2C2C"/>
<path id="Vector 8 (Stroke)" fill-rule="evenodd" clip-rule="evenodd" d="M2.5 5.83333C2.5 5.3731 2.8731 5 3.33333 5L6.66667 5C7.1269 5 7.5 5.3731 7.5 5.83333C7.5 6.29357 7.1269 6.66667 6.66667 6.66667L3.33333 6.66667C2.8731 6.66667 2.5 6.29357 2.5 5.83333Z" fill="#2C2C2C"/>
<path id="Vector 11 (Stroke)" fill-rule="evenodd" clip-rule="evenodd" d="M13.3335 14.1668C13.3335 13.7066 13.7066 13.3335 14.1668 13.3335L16.6668 13.3335C17.1271 13.3335 17.5002 13.7066 17.5002 14.1668C17.5002 14.6271 17.1271 15.0002 16.6668 15.0002L14.1668 15.0002C13.7066 15.0002 13.3335 14.6271 13.3335 14.1668Z" fill="#2C2C2C"/>
<path id="Vector 12 (Stroke)" fill-rule="evenodd" clip-rule="evenodd" d="M2.5 14.1668C2.5 13.7066 2.8731 13.3335 3.33333 13.3335L10 13.3335C10.4602 13.3335 10.8333 13.7066 10.8333 14.1668C10.8333 14.6271 10.4602 15.0002 10 15.0002L3.33333 15.0002C2.8731 15.0002 2.5 14.6271 2.5 14.1668Z" fill="#2C2C2C"/>
<path id="Ellipse 36 (Stroke)" fill-rule="evenodd" clip-rule="evenodd" d="M9.16683 5.8335C9.16683 5.37326 8.79373 5.00016 8.3335 5.00016C7.87326 5.00016 7.50016 5.37326 7.50016 5.8335C7.50016 6.29373 7.87326 6.66683 8.3335 6.66683C8.79373 6.66683 9.16683 6.29373 9.16683 5.8335ZM8.3335 3.3335C9.71421 3.3335 10.8335 4.45278 10.8335 5.8335C10.8335 7.21421 9.71421 8.3335 8.3335 8.3335C6.95278 8.3335 5.8335 7.21421 5.8335 5.8335C5.8335 4.45278 6.95278 3.3335 8.3335 3.3335Z" fill="#2C2C2C"/>
<path id="Ellipse 37 (Stroke)" fill-rule="evenodd" clip-rule="evenodd" d="M13.3333 14.1665C13.3333 13.7063 12.9602 13.3332 12.5 13.3332C12.0398 13.3332 11.6667 13.7063 11.6667 14.1665C11.6667 14.6267 12.0398 14.9998 12.5 14.9998C12.9602 14.9998 13.3333 14.6267 13.3333 14.1665ZM12.5 11.6665C13.8807 11.6665 15 12.7858 15 14.1665C15 15.5472 13.8807 16.6665 12.5 16.6665C11.1193 16.6665 10 15.5472 10 14.1665C10 12.7858 11.1193 11.6665 12.5 11.6665Z" fill="#2C2C2C"/>
</g>
</svg>
