<svg width="7" height="41" viewBox="0 0 7 41" fill="none" xmlns="http://www.w3.org/2000/svg">
<path id="Line 71" d="M3.5 40.8868L6.38675 38L3.5 35.1132L0.613247 38L3.5 40.8868ZM3 -2.18558e-08L3 1.58333L4 1.58333L4 2.18558e-08L3 -2.18558e-08ZM3 4.75L3 7.91667L4 7.91667L4 4.75L3 4.75ZM3 11.0833L3 14.25L4 14.25L4 11.0833L3 11.0833ZM3 17.4167L3 20.5833L4 20.5833L4 17.4167L3 17.4167ZM3 23.75L3 26.9167L4 26.9167L4 23.75L3 23.75ZM3 30.0833L3 33.25L4 33.25L4 30.0833L3 30.0833ZM3 36.4167L3 38L4 38L4 36.4167L3 36.4167Z" fill="#898989"/>
</svg>
