<svg width="14" height="14" viewBox="0 0 14 14" fill="none" xmlns="http://www.w3.org/2000/svg">
<g id="Bag_alt_fill">
<path id="Vector 9 (Stroke)" fill-rule="evenodd" clip-rule="evenodd" d="M4.66683 7.5835C4.34466 7.5835 4.0835 7.32233 4.0835 7.00016L4.0835 4.66683C4.0835 3.056 5.38933 1.75016 7.00016 1.75016C8.61099 1.75016 9.91683 3.056 9.91683 4.66683L9.91683 7.00016C9.91683 7.32233 9.65566 7.5835 9.3335 7.5835C9.01133 7.5835 8.75016 7.32233 8.75016 7.00016L8.75016 4.66683C8.75016 3.70033 7.96666 2.91683 7.00016 2.91683C6.03366 2.91683 5.25016 3.70033 5.25016 4.66683L5.25016 7.00016C5.25016 7.32233 4.989 7.58349 4.66683 7.5835Z" fill="#898989"/>
<path id="Rectangle 1" d="M2.15482 7.72306C2.23945 6.70753 2.28176 6.19977 2.61665 5.89163C2.95153 5.5835 3.46105 5.5835 4.4801 5.5835H9.51948C10.5385 5.5835 11.048 5.5835 11.3829 5.89163C11.7178 6.19977 11.7601 6.70753 11.8447 7.72306L12.1445 11.3199C12.1938 11.9112 12.2184 12.2068 12.0451 12.3951C11.8718 12.5835 11.5751 12.5835 10.9819 12.5835H3.01772C2.42444 12.5835 2.1278 12.5835 1.95449 12.3951C1.78118 12.2068 1.80581 11.9112 1.85508 11.3199L2.15482 7.72306Z" fill="#898989"/>
</g>
</svg>
