<svg width="138" height="40" viewBox="0 0 138 40" fill="none" xmlns="http://www.w3.org/2000/svg">
<g id="delivery-boy-logo">
<g id="Group 95116">
<g id="Group 95115">
<path id="Ellipse 190" d="M36.9069 19.4535C36.9069 33.6917 32.6917 37.9069 18.4535 37.9069C4.21524 37.9069 0 33.6917 0 19.4535C0 5.21524 4.21524 1 18.4535 1C32.6917 1 36.9069 5.21524 36.9069 19.4535Z" fill="#FCCA19"/>
<g id="Group 312">
<path id="Vector" fill-rule="evenodd" clip-rule="evenodd" d="M12.3889 26.5739C12.2851 26.4149 12.2142 26.2367 12.1806 26.0498C12.147 25.8629 12.1512 25.6711 12.1931 25.4859L14.2661 16.2516C14.2973 16.3511 14.3612 16.4372 14.4474 16.4959C14.5335 16.5546 14.637 16.5826 14.741 16.5753C14.845 16.5679 14.9436 16.5257 15.0207 16.4555C15.0977 16.3853 15.1489 16.2911 15.1659 16.1882L15.4329 14.6074L18.8306 15.1814L18.5635 16.7622C18.543 16.8834 18.5715 17.0078 18.6428 17.1081C18.714 17.2083 18.8221 17.2761 18.9434 17.2965C19.0646 17.317 19.189 17.2885 19.2892 17.2173C19.3894 17.146 19.4572 17.0379 19.4777 16.9167L19.7448 15.3359L21.0064 15.549L18.9564 27.6834L12.3889 26.5739ZM23.7874 16.0188L22.0438 26.3397C21.9523 26.3299 21.86 26.3477 21.7787 26.3907L19.9496 27.3708L21.9207 15.7034L23.7874 16.0188Z" fill="white"/>
<path id="Vector_2" d="M15.1643 16.1952C15.1438 16.3164 15.076 16.4245 14.9758 16.4958C14.8756 16.567 14.7512 16.5956 14.6299 16.5751C14.5087 16.5546 14.4006 16.4868 14.3293 16.3866C14.2581 16.2864 14.2296 16.162 14.25 16.0407L14.5182 14.4533L13.2283 14.2354L10.7501 25.2716L10.7414 25.3231C10.6973 25.5701 10.7512 25.8245 10.8917 26.0324C11.0253 26.2287 11.229 26.3665 11.4609 26.4175L18.956 27.6837L21.006 15.5493L19.7443 15.3362L19.4773 16.917C19.4568 17.0382 19.389 17.1464 19.2888 17.2176C19.1886 17.2888 19.0642 17.3174 18.9429 17.2969C18.8217 17.2764 18.7136 17.2086 18.6423 17.1084C18.5711 17.0082 18.5426 16.8838 18.563 16.7625L18.8301 15.1817L15.4325 14.6077L15.1643 16.1952ZM19.1082 13.4951C19.1152 13.4535 19.1222 13.412 19.1293 13.3704C19.18 12.919 19.0726 12.464 18.8253 12.083C18.7034 11.8908 18.5427 11.7261 18.3537 11.5994C18.1647 11.4727 17.9513 11.3867 17.7272 11.3469C17.5025 11.311 17.2728 11.3222 17.0526 11.3798C16.8325 11.4373 16.6267 11.5401 16.4483 11.6814C16.0549 11.9881 15.7922 12.4324 15.7133 12.925L15.5816 13.7046L18.9826 14.2791L19.1149 13.4962L19.1082 13.4951ZM23.2884 15.0031L23.4201 14.2235C23.5079 13.7327 23.4065 13.2268 23.1361 12.8078C23.0154 12.6144 22.8551 12.4487 22.6656 12.3218C22.4762 12.1949 22.262 12.1097 22.0372 12.0717C21.8123 12.0337 21.582 12.0439 21.3614 12.1015C21.1408 12.1591 20.9349 12.2629 20.7574 12.406C20.402 12.6868 20.1542 13.0814 20.0557 13.5235C20.0487 13.5651 20.0417 13.6066 20.0346 13.6482L19.9029 14.4278L23.2939 15.0007L23.2884 15.0031ZM12.9525 13.257L14.6713 13.5474L14.803 12.7678C14.9228 12.046 15.3104 11.3959 15.8884 10.9474C16.1675 10.7278 16.489 10.5684 16.8328 10.4794C17.1765 10.3903 17.535 10.3735 17.8856 10.4299C18.2352 10.4918 18.5683 10.6254 18.8637 10.8225C19.1591 11.0195 19.4105 11.2757 19.6019 11.5747C19.691 11.7115 19.7685 11.8556 19.8335 12.0054C19.9441 11.8853 20.0645 11.7747 20.1937 11.6747C20.4716 11.4533 20.7931 11.293 21.1371 11.2041C21.4812 11.1153 21.8401 11.1 22.1905 11.1592C22.5408 11.2184 22.8748 11.3507 23.1706 11.5477C23.4664 11.7446 23.7173 12.0016 23.9071 12.3021C24.3065 12.9153 24.4591 13.6569 24.3343 14.378L24.2026 15.1576L25.9845 15.4586C26.1029 15.4786 26.2088 15.544 26.2796 15.6409C26.3504 15.7379 26.3806 15.8586 26.3636 15.9774L24.5532 29.0824C24.5453 29.1714 24.5118 29.2562 24.4567 29.3265C24.4016 29.3968 24.3273 29.4497 24.2428 29.4787C24.1583 29.5076 24.0672 29.5115 23.9806 29.4897C23.8939 29.468 23.8155 29.4216 23.7547 29.3561L21.8994 27.374L19.5853 28.6141L19.577 28.6127L19.5686 28.6113L19.5587 28.6096L19.5437 28.6071L19.5337 28.6054L19.5238 28.6037L19.5138 28.6021L19.4889 28.5978L19.4739 28.5953L19.4639 28.5936L11.3754 27.2271L11.2823 27.2114C10.8201 27.1035 10.4163 26.8238 10.1528 26.429C9.88003 26.0272 9.77263 25.5357 9.85287 25.0568C9.85596 25.0385 9.86158 25.0053 9.86944 24.9587L12.4434 13.4975C12.4691 13.3817 12.5383 13.2801 12.6366 13.2137C12.735 13.1473 12.8551 13.1211 12.9722 13.1406L12.9525 13.257ZM25.3893 16.2899L21.9202 15.7038L19.9491 27.3711L21.7749 26.3904C21.8647 26.3434 21.9675 26.327 22.0674 26.3439C22.1674 26.3608 22.2591 26.41 22.3284 26.484L23.7634 28.0189L25.3893 16.2899Z" fill="#2C2C2C"/>
</g>
</g>
<g id="Group 95114">
<g id="Group 9373">
<g id="Group">
<path id="Vector_3" d="M58.5996 5.92102V19.2753H55.9808V10.6124L52.2203 16.8179H51.91L48.1495 10.6372V19.2753H45.5184V5.92102H48.224L52.059 12.2382L55.8691 5.92102H58.5996Z" fill="white"/>
<path id="Vector_4" d="M70.6129 19.2752L69.8062 16.8675H64.4818L63.6751 19.2752H60.833L65.512 5.92096H68.776L73.4674 19.2752H70.6129ZM65.3382 14.4101H68.9994L67.1626 8.94924L65.3382 14.4101Z" fill="white"/>
<path id="Vector_5" d="M82.7263 19.2752L80.0331 14.6335H78.0349V19.2752H75.4038V5.92096H80.7405C81.9816 5.92096 83.0242 6.35534 83.8929 7.22411C84.7493 8.08047 85.1961 9.13541 85.1961 10.3517C85.1961 12.0148 84.166 13.5413 82.6146 14.2487L85.5684 19.2876H82.7263V19.2752ZM78.0349 8.37834V12.325H80.7405C81.7334 12.325 82.5525 11.4314 82.5525 10.3393C82.5525 9.24711 81.7334 8.37834 80.7405 8.37834H78.0349Z" fill="white"/>
<path id="Vector_6" d="M96.738 5.92096V8.44039H93.1264V19.2752H90.4952V8.44039H86.9084V5.92096H96.738Z" fill="white"/>
<path id="Vector_7" d="M103.057 19.2752L98.5637 5.92096H101.431L104.695 16.1849L107.934 5.92096H110.813L106.308 19.2752H103.057Z" fill="white"/>
<path id="Vector_8" d="M113.047 5.92096H115.678V19.2752H113.047V5.92096Z" fill="white"/>
<path id="Vector_9" d="M121.747 16.7558H126.835V19.2752H119.103V5.92096H121.734V16.7558H121.747Z" fill="white"/>
<path id="Vector_10" d="M131.911 16.7558H137V19.2752H129.268V5.92096H131.899V16.7558H131.911Z" fill="white"/>
</g>
</g>
<g id="DELIVERY">
<path d="M45.5182 32.8221V25.0717H48.0315C48.9395 25.0717 49.685 25.2304 50.2681 25.5478C50.8586 25.8652 51.2941 26.3154 51.5746 26.8985C51.8625 27.4743 52.0064 28.1608 52.0064 28.958C52.0064 29.7478 51.8625 30.4342 51.5746 31.0174C51.2941 31.5931 50.8586 32.0397 50.2681 32.3571C49.685 32.6671 48.9395 32.8221 48.0315 32.8221H45.5182ZM46.6918 31.8256H47.9873C48.6885 31.8256 49.2421 31.7112 49.6481 31.4824C50.0614 31.2536 50.3567 30.9251 50.5338 30.497C50.7184 30.0689 50.8106 29.5558 50.8106 28.958C50.8106 28.3601 50.7184 27.8434 50.5338 27.4079C50.3567 26.9724 50.0614 26.6402 49.6481 26.4114C49.2421 26.1752 48.6885 26.0571 47.9873 26.0571H46.6918V31.8256Z" fill="white" fill-opacity="0.5"/>
<path d="M59.3929 32.8221V25.0717H64.32V26.0239H60.5665V28.4376H63.9878V29.3676H60.5665V31.8699H64.32V32.8221H59.3929Z" fill="white" fill-opacity="0.5"/>
<path d="M71.8079 32.8221V25.0717H72.9815V31.8921H76.5024V32.8221H71.8079Z" fill="white" fill-opacity="0.5"/>
<path d="M83.8553 32.8221V25.0717H85.0289V32.8221H83.8553Z" fill="white" fill-opacity="0.5"/>
<path d="M94.9832 32.8221L92.1155 25.0717H93.3667L95.6918 31.6042L98.028 25.0717H99.2681L96.4004 32.8221H94.9832Z" fill="white" fill-opacity="0.5"/>
<path d="M106.35 32.8221V25.0717H111.277V26.0239H107.523V28.4376H110.945V29.3676H107.523V31.8699H111.277V32.8221H106.35Z" fill="white" fill-opacity="0.5"/>
<path d="M118.765 32.8221V25.0717H121.433C122.046 25.0717 122.548 25.175 122.939 25.3817C123.337 25.5884 123.633 25.8688 123.825 26.2232C124.017 26.5701 124.113 26.9576 124.113 27.3857C124.113 27.8655 123.983 28.301 123.725 28.6922C123.474 29.0834 123.079 29.3639 122.54 29.5337L124.19 32.8221H122.828L121.322 29.6998H119.938V32.8221H118.765ZM119.938 28.814H121.367C121.898 28.814 122.286 28.6848 122.529 28.4265C122.78 28.1681 122.906 27.8323 122.906 27.4189C122.906 27.0056 122.784 26.6771 122.54 26.4335C122.297 26.1826 121.902 26.0571 121.356 26.0571H119.938V28.814Z" fill="white" fill-opacity="0.5"/>
<path d="M133.269 32.8221V29.9655L130.701 25.0717H132.029L133.856 28.814L135.672 25.0717H136.99L134.443 29.9655V32.8221H133.269Z" fill="white" fill-opacity="0.5"/>
</g>
</g>
</g>
</g>
</svg>
