<svg width="29" height="28" viewBox="0 0 29 28" fill="none" xmlns="http://www.w3.org/2000/svg">
<g id="money (4) 2" clip-path="url(#clip0_184_2947)">
<path id="Vector" d="M5.59363 5.88777C5.59287 5.22605 6.0751 4.52802 7.01928 3.98289C8.74413 2.98709 11.3533 2.87892 12.847 3.74134C13.5165 4.12787 13.8472 4.64379 13.8542 5.18509H13.8545V6.00655V6.04319V6.86465L13.8535 6.86471C13.8536 6.87017 13.8531 6.8757 13.8531 6.88117L13.8545 6.88106V7.67621V7.73916V8.53431L13.8535 8.53437C13.8536 8.53984 13.8531 8.54536 13.8531 8.55083L13.8545 8.55072V9.40882L13.8535 9.40893C13.8539 9.42206 13.8528 9.43535 13.8527 9.44853L13.8545 9.44836V10.3065L13.8535 10.3065C13.8721 10.9788 13.3898 11.6922 12.4286 12.2472C10.7037 13.243 8.0946 13.3511 6.60087 12.4887C5.9082 12.0888 5.5816 11.5501 5.59763 10.9883L5.59823 10.1506C5.5979 10.1306 5.59708 10.1107 5.59763 10.0907L5.59801 9.25302C5.59801 9.24071 5.5973 9.22846 5.59763 9.21616L5.59735 8.37856L5.59796 7.58335C5.59796 7.57105 5.59724 7.5588 5.59757 7.54644L5.59249 6.72542H5.59238V5.88782L5.59363 5.88777Z" fill="#DCA700"/>
<g id="Group">
<path id="Vector_2" d="M6.60088 9.04691C8.09461 9.90933 10.7038 9.80116 12.4286 8.80536C13.382 8.25493 13.8635 7.54858 13.8532 6.88112L13.8545 6.88101V7.73911L13.8535 7.73917C13.8721 8.41144 13.3898 9.12489 12.4286 9.67981C10.7038 10.6756 8.09461 10.7838 6.60088 9.92136C5.90821 9.52143 5.58161 8.98271 5.59764 8.4209L5.59802 7.58347C5.59715 8.13188 5.92347 8.65579 6.60088 9.04691Z" fill="#CC8200"/>
<path id="Vector_3" d="M6.60088 10.7166C8.09461 11.579 10.7038 11.4708 12.4286 10.475C13.382 9.92458 13.8635 9.21824 13.8532 8.55083L13.8545 8.55072V9.40882L13.8535 9.40893C13.8721 10.0812 13.3898 10.7947 12.4286 11.3496C10.7038 12.3454 8.09461 12.4536 6.60088 11.5912C5.90821 11.1913 5.58161 10.6525 5.59764 10.0908L5.59802 9.25334C5.59715 9.80159 5.92347 10.3255 6.60088 10.7166Z" fill="#CC8200"/>
</g>
<path id="Vector_4" d="M7.01928 3.98289C5.29444 4.9787 5.10714 6.48512 6.60087 7.34754C8.0946 8.20996 10.7038 8.10179 12.4286 7.10599C14.1534 6.11018 14.3407 4.60376 12.847 3.74134C11.3533 2.87892 8.74413 2.98709 7.01928 3.98289Z" fill="#DCA700"/>
<path id="Vector_5" d="M13.8542 5.18509C13.8629 5.85157 13.3804 6.55649 12.4286 7.10599C10.7038 8.10179 8.09461 8.20996 6.60087 7.34754C5.92483 6.95718 5.5943 6.43486 5.59364 5.88777L5.59244 5.88788V6.72547C5.59244 6.72547 5.61809 7.6445 6.60087 8.22544C8.08564 9.10323 10.7038 8.97969 12.4286 7.98389C13.3898 7.42892 13.8721 6.71546 13.8534 6.04319L13.8545 6.04314V5.18509H13.8542Z" fill="#CC8200"/>
<path id="Vector_6" d="M7.49969 4.26026C6.0812 5.07921 5.92715 6.3181 7.15559 7.02734C8.38404 7.73658 10.5298 7.6476 11.9483 6.82866C13.3668 6.00971 13.5208 4.77088 12.2924 4.06158C11.0639 3.35234 8.91817 3.44126 7.49969 4.26026Z" fill="#FFD800"/>
<path id="Vector_7" d="M7.88108 5.17572C7.66074 5.80955 8.68011 6.29972 9.12664 6.46361C9.7066 6.67651 10.3472 6.72502 10.9219 6.46312L11.311 6.68778L11.6778 6.47603L11.2876 6.25072C11.4387 6.14019 11.5501 6.02223 11.6206 5.89667L10.9939 5.53491C10.9139 5.67797 10.8106 5.80042 10.6839 5.90219L9.10416 4.99011C9.27287 4.92493 9.45974 4.88883 9.63709 4.85843L9.25018 4.40802C8.96307 4.45615 8.70964 4.53205 8.48893 4.63486L8.12799 4.42645L7.7612 4.6382L8.13018 4.85121C8.00505 4.95194 7.92138 5.05995 7.88108 5.17572C7.92138 5.05995 7.823 5.34285 7.88108 5.17572ZM8.77374 5.22292L10.2717 6.0878C9.93656 6.14577 8.54148 5.75158 8.77374 5.22292Z" fill="#DCA700"/>
<path id="Vector_8" d="M28.5 10.4777V14.0888L9.83335 24.8409L0.5 19.4587V15.8663L19.1666 5.08911L28.5 10.4777Z" fill="#007A6E"/>
<path id="Vector_9" d="M28.5 10.4778V14.0888L9.83334 24.8409V21.2613L28.5 10.4778Z" fill="#009F5E"/>
<g id="Group_2">
<path id="Vector_10" d="M9.83297 21.9786L28.5 11.1973V11.917L9.83297 22.7016L0.513184 17.3208V16.6012L9.83297 21.9786Z" fill="#00917F"/>
<path id="Vector_11" d="M9.83647 23.4119L28.5 12.6365V13.3562L9.83647 24.1349L0.5 18.7516V18.0328L9.83647 23.4119Z" fill="#00917F"/>
</g>
<g id="Group_3">
<path id="Vector_12" d="M28.5 11.1973V11.917L9.83298 22.7016V21.9786L28.5 11.1973Z" fill="#00AC65"/>
<path id="Vector_13" d="M28.5 12.6365V13.3562L9.83649 24.1349V23.4119L28.5 12.6365Z" fill="#00AC65"/>
</g>
<path id="Vector_14" d="M3.91879 17.8425L0.5 15.8663L19.1666 5.08911L28.5 10.4777L9.83335 21.2613L3.91879 17.8425Z" fill="#00C169"/>
<path id="Vector_15" d="M2.28561 15.8688L9.84337 20.2238L26.7225 10.4777L19.1677 6.11963L2.28561 15.8688Z" fill="#FFE6C6"/>
<path id="Vector_16" d="M24.9606 10.4777L19.1739 7.13678L4.08188 15.8688L9.85316 19.1936L24.9606 10.4777Z" fill="#00AC65"/>
<path id="Vector_17" d="M12.9445 8.68152L22.2778 14.0722V17.6728L16.0685 21.2474V17.6593L6.72748 12.2709L12.9445 8.68152Z" fill="#E5AC91"/>
<path id="Vector_18" d="M12.9445 8.68152L22.2778 14.0722L16.0685 17.6593L6.72748 12.2709L12.9445 8.68152Z" fill="#FFD6A0"/>
<path id="Vector_19" d="M16.0685 17.6593V21.2475L22.2778 17.6728V14.0722L16.0685 17.6593Z" fill="#E5AC91"/>
<path id="Vector_20" d="M7.56158 11.7893L12.1181 9.15857L21.4485 14.5488L16.8995 17.178L7.56158 11.7893Z" fill="#FFE6C6"/>
<path id="Vector_21" d="M21.4485 14.5489V18.1505L16.8991 20.7709L16.8995 17.178L21.4485 14.5489Z" fill="#FFCBA1"/>
<g id="Group_4">
<path id="Vector_22" d="M18.4604 7.6447C18.9945 7.95308 19.8025 7.98655 20.2651 7.71951C20.7276 7.45247 20.6697 6.98593 20.1355 6.67755C19.6014 6.36917 18.7935 6.3357 18.3309 6.60274C17.8683 6.86983 17.9263 7.33632 18.4604 7.6447Z" fill="#FFE6C6"/>
<path id="Vector_23" d="M18.9873 10.3361C19.2966 10.5147 19.7646 10.5341 20.0325 10.3794C20.3004 10.2248 20.2668 9.95454 19.9575 9.77593C19.6481 9.59732 19.1801 9.57791 18.9122 9.73262C18.6443 9.88727 18.6779 10.1574 18.9873 10.3361Z" fill="#FFE6C6"/>
<path id="Vector_24" d="M8.62706 16.3051C8.93642 16.4837 9.40438 16.5031 9.6723 16.3484C9.94021 16.1938 9.90663 15.9236 9.59727 15.745C9.2879 15.5663 8.81994 15.5469 8.55202 15.7016C8.28406 15.8563 8.31769 16.1265 8.62706 16.3051Z" fill="#FFE6C6"/>
<path id="Vector_25" d="M3.30755 16.4053C3.84168 16.7136 4.64964 16.7471 5.11224 16.4801C5.57478 16.213 5.51676 15.7465 4.98268 15.4382C4.44855 15.1298 3.6406 15.0963 3.178 15.3634C2.71539 15.6304 2.77342 16.0969 3.30755 16.4053Z" fill="#FFE6C6"/>
<path id="Vector_26" d="M24.0675 10.8888C24.6016 11.1972 25.4096 11.2307 25.8722 10.9636C26.3347 10.6966 26.2767 10.2301 25.7426 9.92172C25.2085 9.61334 24.4005 9.57987 23.9379 9.84691C23.4753 10.1139 23.5333 10.5804 24.0675 10.8888Z" fill="#FFE6C6"/>
<path id="Vector_27" d="M8.88639 19.6521C9.42052 19.9604 10.2285 19.9939 10.6911 19.7269C11.1536 19.4598 11.0957 18.9934 10.5615 18.685C10.0274 18.3766 9.21943 18.3431 8.75683 18.6102C8.29428 18.8772 8.35225 19.3437 8.88639 19.6521Z" fill="#FFE6C6"/>
</g>
<g id="Group_5">
<path id="Vector_28" d="M19.4724 14.649L11.9133 10.288L11.1057 10.7541L18.6648 15.1244L19.4724 14.649Z" fill="#E6C190"/>
<path id="Vector_29" d="M16.948 15.0805L11.1749 11.7463L10.3719 12.2124L16.1451 15.5409L16.948 15.0805Z" fill="#E6C190"/>
</g>
</g>
<defs>
<clipPath id="clip0_184_2947">
<rect width="28" height="28" fill="white" transform="translate(0.5)"/>
</clipPath>
</defs>
</svg>
