<svg width="22" height="22" viewBox="0 0 22 22" fill="none" xmlns="http://www.w3.org/2000/svg">
<path fill-rule="evenodd" clip-rule="evenodd" d="M1.8335 5.50008C1.8335 4.48756 2.65431 3.66675 3.66683 3.66675C4.67935 3.66675 5.50016 4.48756 5.50016 5.50008C5.50016 6.5126 4.67935 7.33341 3.66683 7.33341C2.65431 7.33341 1.8335 6.5126 1.8335 5.50008ZM7.3335 5.50008C7.3335 4.99382 7.7439 4.58341 8.25016 4.58341H19.2502C19.7564 4.58341 20.1668 4.99382 20.1668 5.50008C20.1668 6.00634 19.7564 6.41675 19.2502 6.41675L8.25016 6.41675C7.7439 6.41675 7.3335 6.00634 7.3335 5.50008ZM1.8335 11.0001C1.8335 9.98756 2.65431 9.16675 3.66683 9.16675C4.67935 9.16675 5.50016 9.98756 5.50016 11.0001C5.50016 12.0126 4.67935 12.8334 3.66683 12.8334C2.65431 12.8334 1.8335 12.0126 1.8335 11.0001ZM7.3335 11.0001C7.3335 10.4938 7.7439 10.0834 8.25016 10.0834L19.2502 10.0834C19.7564 10.0834 20.1668 10.4938 20.1668 11.0001C20.1668 11.5063 19.7564 11.9167 19.2502 11.9167L8.25016 11.9167C7.7439 11.9167 7.3335 11.5063 7.3335 11.0001ZM1.8335 16.5001C1.8335 15.4876 2.65431 14.6667 3.66683 14.6667C4.67935 14.6667 5.50016 15.4876 5.50016 16.5001C5.50016 17.5126 4.67935 18.3334 3.66683 18.3334C2.65431 18.3334 1.8335 17.5126 1.8335 16.5001ZM7.3335 16.5001C7.3335 15.9938 7.7439 15.5834 8.25016 15.5834L19.2502 15.5834C19.7564 15.5834 20.1668 15.9938 20.1668 16.5001C20.1668 17.0063 19.7564 17.4167 19.2502 17.4167L8.25016 17.4167C7.7439 17.4167 7.3335 17.0063 7.3335 16.5001Z" fill="#000"/>
</svg>
