<svg width="31" height="30" viewBox="0 0 31 30" fill="none" xmlns="http://www.w3.org/2000/svg">
<g id="pause 1" clip-path="url(#clip0_184_2495)">
<g id="Group">
<path id="Vector" d="M15.5002 24.786C22.3051 24.786 27.8216 19.5093 27.8216 13.0003C27.8216 6.49118 22.3051 1.21454 15.5002 1.21454C8.69526 1.21454 3.17877 6.49118 3.17877 13.0003C3.17877 19.5093 8.69526 24.786 15.5002 24.786Z" fill="#FFC265"/>
<path id="Vector_2" d="M15.5002 23.4585C8.92032 23.4585 3.54548 18.3544 3.19711 11.9289C3.18522 12.1487 3.17877 12.37 3.17877 12.5927C3.17877 19.3269 8.69526 24.786 15.5002 24.786C22.3051 24.786 27.8216 19.3269 27.8216 12.5927C27.8216 12.37 27.8152 12.1487 27.8033 11.9289C27.4549 18.3544 22.0801 23.4585 15.5002 23.4585Z" fill="#FFB541"/>
<path id="Vector_3" d="M22.732 19.6966C26.7262 15.7025 26.7262 9.22661 22.732 5.23243C18.7378 1.23825 12.262 1.23825 8.26781 5.23243C4.27363 9.22661 4.27363 15.7025 8.26781 19.6966C12.262 23.6908 18.7378 23.6908 22.732 19.6966Z" fill="#FFE9C8"/>
<path id="Vector_4" d="M15.4999 21.3359C10.1007 21.3359 5.68414 17.1805 5.34332 11.9289C5.32927 12.1451 5.32135 12.3629 5.32135 12.5826C5.32135 18.1389 9.87846 22.6432 15.4999 22.6432C21.1214 22.6432 25.6785 18.1388 25.6785 12.5825C25.6785 12.3629 25.6706 12.1451 25.6565 11.9289C25.3157 17.1805 20.8992 21.3359 15.4999 21.3359Z" fill="#FFDCA7"/>
<g id="Group_2">
<g id="Group_3">
<path id="Vector_5" d="M13.7838 17.2837H12.7326C12.4607 17.2837 12.2403 17.0634 12.2403 16.7914V8.13751C12.2403 7.86563 12.4607 7.6452 12.7326 7.6452H13.7838C14.0557 7.6452 14.2762 7.86563 14.2762 8.13751V16.7914C14.2761 17.0633 14.0557 17.2837 13.7838 17.2837Z" fill="#FF4755"/>
<path id="Vector_6" d="M18.2726 17.2839H17.2213C16.9494 17.2839 16.729 17.0636 16.729 16.7916V8.1377C16.729 7.86581 16.9494 7.64539 17.2213 7.64539H18.2726C18.5444 7.64539 18.7649 7.86581 18.7649 8.1377V16.7916C18.7649 17.0635 18.5444 17.2839 18.2726 17.2839Z" fill="#FF4755"/>
</g>
</g>
<g id="Group_4">
<path id="Vector_7" d="M13.7838 16.3973H12.7326C12.4607 16.3973 12.2403 16.1769 12.2403 15.905V16.7911C12.2403 17.063 12.4607 17.2834 12.7326 17.2834H13.7838C14.0557 17.2834 14.2762 17.063 14.2762 16.7911V15.905C14.2761 16.1769 14.0557 16.3973 13.7838 16.3973Z" fill="#FC2B3A"/>
<path id="Vector_8" d="M18.2727 16.3973H17.2215C16.9496 16.3973 16.7292 16.1769 16.7292 15.905V16.7911C16.7292 17.063 16.9496 17.2834 17.2215 17.2834H18.2727C18.5446 17.2834 18.765 17.063 18.765 16.7911V15.905C18.765 16.1769 18.5446 16.3973 18.2727 16.3973Z" fill="#FC2B3A"/>
</g>
</g>
</g>
<defs>
<clipPath id="clip0_184_2495">
<rect width="30" height="30" fill="white" transform="translate(0.5)"/>
</clipPath>
</defs>
</svg>
