<svg width="24" height="24" viewBox="0 0 24 24" fill="none" xmlns="http://www.w3.org/2000/svg">
<g id="Send_fill">
<path id="Subtract" fill-rule="evenodd" clip-rule="evenodd" d="M10.3923 12.6033L8.14505 11.8542L8.14505 11.8542L8.14504 11.8542C5.79184 11.0698 4.61523 10.6776 4.61523 9.95688C4.61523 9.23612 5.79184 8.84392 8.14506 8.05952L16.6582 5.22179C18.314 4.66986 19.1419 4.3939 19.5789 4.83092C20.0159 5.26793 19.74 6.09583 19.188 7.75162L16.3503 16.2648L16.3503 16.2648L16.3503 16.2648C15.5659 18.618 15.1737 19.7946 14.453 19.7946C13.7322 19.7946 13.34 18.618 12.5556 16.2648L11.8065 14.0175L16.1601 9.66399C16.5506 9.27347 16.5506 8.6403 16.1601 8.24978C15.7695 7.85925 15.1364 7.85925 14.7458 8.24978L10.3923 12.6033Z" fill="white"/>
</g>
</svg>
