<svg width="22" height="22" viewBox="0 0 22 22" fill="none" xmlns="http://www.w3.org/2000/svg">
<path fill-rule="evenodd" clip-rule="evenodd" d="M4.73117 2.75L15.4352 2.75C15.9184 2.74999 16.3353 2.74997 16.6786 2.77803C17.041 2.80764 17.4015 2.87301 17.7483 3.04974C18.2658 3.31339 18.6865 3.73408 18.9501 4.25153C19.1268 4.59838 19.1922 4.95883 19.2218 5.32123C19.2499 5.66458 19.2499 6.08144 19.2498 6.56465V7.94885C20.1553 8.26869 20.8393 9.04462 21.0303 10.0052C21.0837 10.2736 21.0835 10.5741 21.0832 10.9231C21.0832 10.9485 21.0832 10.9741 21.0832 11C21.0832 11.0259 21.0832 11.0515 21.0832 11.0769C21.0835 11.4259 21.0837 11.7264 21.0303 11.9948C20.8393 12.9554 20.1553 13.7313 19.2498 14.0512V15.4354C19.2499 15.9186 19.2499 16.3354 19.2218 16.6788C19.1922 17.0412 19.1268 17.4016 18.9501 17.7485C18.6865 18.2659 18.2658 18.6866 17.7483 18.9503C17.4015 19.127 17.041 19.1924 16.6786 19.222C16.3353 19.25 15.9184 19.25 15.4352 19.25L4.73115 19.25C4.24794 19.25 3.83108 19.25 3.48773 19.222C3.12533 19.1924 2.76488 19.127 2.41803 18.9503C1.90059 18.6866 1.47989 18.2659 1.21624 17.7485C1.03951 17.4016 0.974137 17.0412 0.944528 16.6788C0.916474 16.3354 0.916488 15.9186 0.916505 15.4353V6.56467C0.916488 6.08145 0.916474 5.66458 0.944528 5.32123C0.974137 4.95883 1.03951 4.59838 1.21624 4.25153C1.47989 3.73408 1.90059 3.31339 2.41803 3.04973C2.76488 2.87301 3.12533 2.80763 3.48773 2.77802C3.83109 2.74997 4.24795 2.74998 4.73117 2.75ZM17.4165 14.2083H16.0415C16.0156 14.2083 15.99 14.2084 15.9646 14.2084C15.6156 14.2087 15.3151 14.2089 15.0467 14.1555C13.9558 13.9385 13.103 13.0857 12.886 11.9948C12.8326 11.7264 12.8329 11.4259 12.8331 11.0769C12.8332 11.0515 12.8332 11.0259 12.8332 11C12.8332 10.9741 12.8332 10.9485 12.8331 10.9231C12.8329 10.5741 12.8326 10.2736 12.886 10.0052C13.103 8.91427 13.9558 8.0615 15.0467 7.84451C15.3151 7.79111 15.6156 7.79135 15.9646 7.79163C15.99 7.79165 16.0156 7.79167 16.0415 7.79167H17.4165V6.6C17.4165 6.0715 17.4158 5.73025 17.3946 5.47052C17.3742 5.2215 17.3397 5.12917 17.3166 5.08384C17.2287 4.91136 17.0885 4.77113 16.916 4.68325C16.8707 4.66016 16.7784 4.62562 16.5293 4.60527C16.2696 4.58405 15.9283 4.58334 15.3998 4.58334H4.76651C4.238 4.58334 3.89675 4.58405 3.63702 4.60527C3.388 4.62561 3.29567 4.66015 3.25035 4.68325C3.07787 4.77113 2.93763 4.91136 2.84975 5.08384C2.82666 5.12917 2.79212 5.22149 2.77177 5.47052C2.75055 5.73024 2.74984 6.07149 2.74984 6.6V15.4C2.74984 15.9285 2.75055 16.2698 2.77177 16.5295C2.79212 16.7785 2.82666 16.8708 2.84975 16.9162C2.93763 17.0886 3.07787 17.2289 3.25035 17.3168C3.29567 17.3399 3.388 17.3744 3.63702 17.3947C3.89675 17.416 4.238 17.4167 4.76651 17.4167L15.3998 17.4167C15.9283 17.4167 16.2696 17.416 16.5293 17.3947C16.7783 17.3744 16.8707 17.3399 16.916 17.3168C17.0885 17.2289 17.2287 17.0886 17.3166 16.9162C17.3397 16.8708 17.3742 16.7785 17.3946 16.5295C17.4158 16.2698 17.4165 15.9285 17.4165 15.4V14.2083ZM16.0415 9.625C15.5716 9.625 15.4706 9.62944 15.4043 9.64262C15.0407 9.71495 14.7565 9.9992 14.6841 10.3628C14.6709 10.4291 14.6665 10.5301 14.6665 11C14.6665 11.4699 14.6709 11.5709 14.6841 11.6372C14.7565 12.0008 15.0407 12.2851 15.4043 12.3574C15.4706 12.3706 15.5716 12.375 16.0415 12.375H17.8748C18.3447 12.375 18.4458 12.3706 18.512 12.3574C18.8756 12.2851 19.1599 12.0008 19.2322 11.6372C19.2454 11.5709 19.2498 11.4699 19.2498 11C19.2498 10.5301 19.2454 10.4291 19.2322 10.3628C19.1599 9.9992 18.8756 9.71495 18.512 9.64262C18.4458 9.62944 18.3447 9.625 17.8748 9.625H16.0415Z" fill="#898989"/>
</svg>
