<svg width="22" height="22" viewBox="0 0 22 22" fill="none" xmlns="http://www.w3.org/2000/svg">
<g id="worker 1" clip-path="url(#clip0_184_2742)">
<path id="Vector" d="M11.4439 13.8838H6.53827V11.082C6.74443 10.6485 6.87648 10.178 6.93457 9.67053H11.0423C11.1058 10.178 11.2378 10.6485 11.444 11.082L11.4439 13.8838Z" fill="#FFBD85"/>
<path id="Vector_2" d="M5.61305 5.6844H12.3692C14.0874 5.04481 13.3736 8.1004 11.9569 8.02637C11.349 9.80266 10.17 10.6907 8.99113 10.6907C7.81224 10.6907 6.63335 9.80266 6.0201 8.02637C4.60844 8.1004 3.8949 5.04481 5.61305 5.6844Z" fill="#FFE9D6"/>
<path id="Vector_3" d="M12.274 4.73822L12.6918 5.17693C12.5014 5.96996 11.8511 6.54089 10.7569 6.88975C10.4238 6.9955 7.55856 6.9955 7.22543 6.88975C6.12594 6.54089 5.48085 5.96996 5.28522 5.17693L5.67645 4.73822H12.274Z" fill="#FF8660"/>
<path id="Vector_4" d="M5.28522 5.1769H12.6918V2.93015C12.6918 1.69317 11.6819 0.678162 10.4449 0.678162H7.53742C6.30023 0.678162 5.28522 1.69321 5.28522 2.93015V5.1769Z" fill="#FF6838"/>
<path id="Vector_5" d="M14.9384 18.9746C15.9798 19.2285 17.0743 18.8373 17.7244 17.9859C17.3701 16.0937 17.069 13.9261 15.7473 12.6784C14.7217 11.7004 12.8185 11.4255 11.444 11.082C10.905 11.9121 9.97971 12.414 8.99113 12.414C8.00259 12.414 7.07734 11.9121 6.5383 11.082C5.1636 11.4255 3.26055 11.7005 2.22956 12.6784C0.913301 13.9261 0.611875 16.0937 0.257812 17.9859C0.907973 18.8373 1.9971 19.2285 3.04361 18.9746C3.57766 19.9581 6.07823 20.6665 8.99113 20.6665C11.904 20.6665 14.4045 19.9581 14.9384 18.9746Z" fill="#FF8660"/>
<path id="Vector_6" d="M3.04358 18.9746C3.16522 19.2023 3.39257 19.4136 3.70457 19.6041L4.03766 15.6865C4.05347 15.4909 3.9054 15.3164 3.70981 15.3007C3.51426 15.2847 3.33981 15.4326 3.32386 15.6282L3.04358 18.9746Z" fill="#FF6838"/>
<path id="Vector_7" d="M11.5709 14.0055L11.1005 13.4081L12.4114 11.4521H20.4311L21.7369 13.4081L21.2664 14.0055H11.5709Z" fill="#FFC824"/>
<path id="Vector_8" d="M11.1005 13.4081H21.7422V21.3219H11.1005V13.4081Z" fill="#FFDE7C"/>
<path id="Vector_9" d="M15.372 15.7976H17.476C17.7984 15.7976 18.0627 16.062 18.0627 16.3843C18.0627 16.7121 17.7984 16.9763 17.476 16.9763H15.372C15.0441 16.9763 14.7799 16.7121 14.7799 16.3843C14.7799 16.0621 15.0441 15.7976 15.372 15.7976Z" fill="#FFC824"/>
<path id="Vector_10" d="M15.9641 14.0055H16.8786L17.2063 13.4081L17.0107 11.4521H15.8265L15.6362 13.4081L15.9641 14.0055Z" fill="#FF8660"/>
<g id="Group">
<path id="Vector_11" d="M15.6362 21.3219H17.2063V19.8365L17.0107 19.9898L16.8151 20.1483L16.6195 19.9898L16.4239 19.8365L16.2283 19.9898L16.0274 20.1483L15.8317 19.9898L15.6362 19.8365V21.3219Z" fill="#FFBD85"/>
<path id="Vector_12" d="M15.6362 13.4081H17.2063V14.8936L16.8151 14.5817L16.4239 14.8936L16.0274 14.5817L15.6362 14.8936V13.4081Z" fill="#FFBD85"/>
</g>
</g>
<defs>
<clipPath id="clip0_184_2742">
<rect width="22" height="22" fill="white"/>
</clipPath>
</defs>
</svg>
